<?xml version="1.0" encoding="UTF-8" standalone="no"?>
<!DOCTYPE svg PUBLIC "-//W3C//DTD SVG 1.1//EN"
 "http://www.w3.org/Graphics/SVG/1.1/DTD/svg11.dtd">
<!-- Generated by graphviz version 2.43.0 (0)
 -->
<!-- Title: TEST Pages: 1 -->
<svg width="249pt" height="348pt"
 viewBox="0.00 0.00 249.40 348.18" xmlns="http://www.w3.org/2000/svg" xmlns:xlink="http://www.w3.org/1999/xlink">
<g id="graph0" class="graph" transform="scale(1 1) rotate(0) translate(4 344.18)">
<title>TEST</title>
<polygon fill="white" stroke="transparent" points="-4,4 -4,-344.18 245.4,-344.18 245.4,4 -4,4"/>
<!-- FeatureModel -->
<g id="node1" class="node">
<title>FeatureModel</title>
<polygon fill="yellow" stroke="transparent" points="122,-334.79 0,-334.79 0,-298.79 122,-298.79 122,-334.79"/>
<text text-anchor="middle" x="61" y="-313.09" font-family="Times,serif" font-size="14.00">FM = f1 xor f2</text>
</g>
<!-- C0 -->
<g id="node2" class="node">
<title>C0</title>
<ellipse fill="none" stroke="black" cx="163" cy="-316.79" rx="23.3" ry="23.3"/>
<text text-anchor="middle" x="163" y="-313.09" font-family="Times,serif" font-size="14.00">C0</text>
</g>
<!-- C0&#45;&gt;C0 -->
<g id="edge1" class="edge">
<title>C0&#45;&gt;C0</title>
<path fill="none" stroke="black" d="M184.72,-325.57C195.17,-326.65 204.4,-323.72 204.4,-316.79 204.4,-312.23 200.43,-309.41 194.74,-308.31"/>
<polygon fill="black" stroke="black" points="194.83,-304.81 184.72,-308.01 194.61,-311.81 194.83,-304.81"/>
<text text-anchor="middle" x="222.9" y="-313.09" font-family="Times,serif" font-size="14.00">a | f2</text>
</g>
<!-- C1 -->
<g id="node3" class="node">
<title>C1</title>
<ellipse fill="none" stroke="black" cx="163" cy="-218.99" rx="23.3" ry="23.3"/>
<text text-anchor="middle" x="163" y="-215.29" font-family="Times,serif" font-size="14.00">C1</text>
</g>
<!-- C0&#45;&gt;C1 -->
<g id="edge2" class="edge">
<title>C0&#45;&gt;C1</title>
<path fill="none" stroke="black" d="M163,-293.08C163,-281.03 163,-266.01 163,-252.72"/>
<polygon fill="black" stroke="black" points="166.5,-252.53 163,-242.53 159.5,-252.53 166.5,-252.53"/>
<text text-anchor="middle" x="190.5" y="-264.19" font-family="Times,serif" font-size="14.00">a | True</text>
</g>
<!-- C2 -->
<g id="node4" class="node">
<title>C2</title>
<ellipse fill="none" stroke="black" cx="163" cy="-121.19" rx="23.3" ry="23.3"/>
<text text-anchor="middle" x="163" y="-117.49" font-family="Times,serif" font-size="14.00">C2</text>
</g>
<!-- C1&#45;&gt;C2 -->
<g id="edge3" class="edge">
<title>C1&#45;&gt;C2</title>
<path fill="none" stroke="black" d="M163,-195.29C163,-183.24 163,-168.21 163,-154.93"/>
<polygon fill="black" stroke="black" points="166.5,-154.73 163,-144.73 159.5,-154.73 166.5,-154.73"/>
<text text-anchor="middle" x="181.5" y="-166.39" font-family="Times,serif" font-size="14.00">a | f1</text>
</g>
<!-- C2&#45;&gt;C2 -->
<g id="edge5" class="edge">
<title>C2&#45;&gt;C2</title>
<path fill="none" stroke="black" d="M184.72,-129.97C195.17,-131.06 204.4,-128.13 204.4,-121.19 204.4,-116.64 200.43,-113.82 194.74,-112.72"/>
<polygon fill="black" stroke="black" points="194.83,-109.22 184.72,-112.41 194.61,-116.22 194.83,-109.22"/>
<text text-anchor="middle" x="222.9" y="-117.49" font-family="Times,serif" font-size="14.00">a | f2</text>
</g>
<!-- C3 -->
<g id="node5" class="node">
<title>C3</title>
<ellipse fill="none" stroke="black" cx="163" cy="-23.4" rx="23.3" ry="23.3"/>
<text text-anchor="middle" x="163" y="-19.7" font-family="Times,serif" font-size="14.00">C3</text>
</g>
<!-- C2&#45;&gt;C3 -->
<g id="edge4" class="edge">
<title>C2&#45;&gt;C3</title>
<path fill="none" stroke="black" d="M163,-97.49C163,-85.44 163,-70.42 163,-57.13"/>
<polygon fill="black" stroke="black" points="166.5,-56.94 163,-46.94 159.5,-56.94 166.5,-56.94"/>
<text text-anchor="middle" x="181.5" y="-68.6" font-family="Times,serif" font-size="14.00">a | f1</text>
</g>
</g>
</svg>
